<?xml version="1.0" encoding="UTF-8" standalone="no"?>
<svg
   xmlns:dc="http://purl.org/dc/elements/1.1/"
   xmlns:cc="http://creativecommons.org/ns#"
   xmlns:rdf="http://www.w3.org/1999/02/22-rdf-syntax-ns#"
   xmlns:svg="http://www.w3.org/2000/svg"
   xmlns="http://www.w3.org/2000/svg"
   xmlns:sodipodi="http://sodipodi.sourceforge.net/DTD/sodipodi-0.dtd"
   xmlns:inkscape="http://www.inkscape.org/namespaces/inkscape"
   width="210mm"
   height="297mm"
   viewBox="0 0 210 297"
   version="1.1"
   id="svg8"
   sodipodi:docname="buildplate.svg"
   inkscape:version="1.0.2 (e86c870879, 2021-01-15, custom)">
  <defs
     id="defs2" />
  <sodipodi:namedview
     id="base"
     pagecolor="#ffffff"
     bordercolor="#666666"
     borderopacity="1.0"
     inkscape:pageopacity="0.0"
     inkscape:pageshadow="2"
     inkscape:zoom="0.25"
     inkscape:cx="451.62562"
     inkscape:cy="273.68315"
     inkscape:document-units="mm"
     inkscape:current-layer="layer1"
     inkscape:document-rotation="0"
     showgrid="false"
     showguides="true"
     inkscape:guide-bbox="true"
     inkscape:window-width="1267"
     inkscape:window-height="979"
     inkscape:window-x="104"
     inkscape:window-y="0"
     inkscape:window-maximized="0">
    <sodipodi:guide
       position="34.200732,287"
       orientation="0,1"
       id="guide12"
       inkscape:label=""
       inkscape:locked="false"
       inkscape:color="rgb(0,0,255)" />
    <sodipodi:guide
       position="10,266.7276"
       orientation="-1,0"
       id="guide14"
       inkscape:label=""
       inkscape:locked="false"
       inkscape:color="rgb(0,0,255)" />
    <sodipodi:guide
       position="20,333.76924"
       orientation="-1,0"
       id="guide16"
       inkscape:label=""
       inkscape:locked="false"
       inkscape:color="rgb(0,0,255)" />
    <sodipodi:guide
       position="9.9999997,277"
       orientation="0,1"
       id="guide20"
       inkscape:label=""
       inkscape:locked="false"
       inkscape:color="rgb(0,0,255)" />
    <sodipodi:guide
       position="-8.0149667,197"
       orientation="0,1"
       id="guide35"
       inkscape:label=""
       inkscape:locked="false"
       inkscape:color="rgb(0,0,255)" />
    <sodipodi:guide
       position="-4.4962009,187"
       orientation="0,1"
       id="guide37"
       inkscape:label=""
       inkscape:locked="false"
       inkscape:color="rgb(0,0,255)" />
    <sodipodi:guide
       position="100,303.64657"
       orientation="-1,0"
       id="guide64"
       inkscape:label=""
       inkscape:locked="false"
       inkscape:color="rgb(0,0,255)" />
    <sodipodi:guide
       position="110,277.00001"
       orientation="-1,0"
       id="guide68"
       inkscape:label=""
       inkscape:locked="false"
       inkscape:color="rgb(0,0,255)" />
    <sodipodi:guide
       position="0,287.00001"
       orientation="-1,0"
       id="guide938"
       inkscape:label=""
       inkscape:locked="false"
       inkscape:color="rgb(0,0,255)" />
    <sodipodi:guide
       position="-15.345833,297"
       orientation="0,1"
       id="guide940"
       inkscape:label=""
       inkscape:locked="false"
       inkscape:color="rgb(0,0,255)" />
  </sodipodi:namedview>
  <metadata
     id="metadata5">
    <rdf:RDF>
      <cc:Work
         rdf:about="">
        <dc:format>image/svg+xml</dc:format>
        <dc:type
           rdf:resource="http://purl.org/dc/dcmitype/StillImage" />
        <dc:title />
      </cc:Work>
    </rdf:RDF>
  </metadata>
  <g
     inkscape:label="Layer 1"
     inkscape:groupmode="layer"
     id="layer1">
    <path
       id="rect10"
       style="fill:#ececec;stroke:#808080;stroke-width:0.2998;stroke-linejoin:round;stroke-miterlimit:2;stroke-dasharray:none"
       d="M 30.079704,0.09990082 C 13.470789,0.09990082 0.09999369,13.470696 0.09999369,30.079611 V 269.92038 c 0,16.60892 13.37079531,29.97973 29.97971031,29.97973 H 269.92047 c 16.60892,0 29.97972,-13.37081 29.97972,-29.97973 V 30.079611 c 0,-16.608915 -13.3708,-29.97971018 -29.97972,-29.97971018 z m 0,20.98626118 a 8.993997,8.9939972 0 0 1 8.994997,8.993449 8.993997,8.9939972 0 0 1 -8.994997,8.994998 8.993997,8.9939972 0 0 1 -8.993449,-8.994998 8.993997,8.9939972 0 0 1 8.993449,-8.993449 z m 239.840766,0 a 8.993997,8.9939972 0 0 1 8.99346,8.993449 8.993997,8.9939972 0 0 1 -8.99346,8.994998 8.993997,8.9939972 0 0 1 -8.99499,-8.994998 8.993997,8.9939972 0 0 1 8.99499,-8.993449 z M 30.079704,260.92538 a 8.993997,8.9939972 0 0 1 8.994997,8.995 8.993997,8.9939972 0 0 1 -8.994997,8.99346 8.993997,8.9939972 0 0 1 -8.993449,-8.99346 8.993997,8.9939972 0 0 1 8.993449,-8.995 z m 239.840766,0 a 8.993997,8.9939972 0 0 1 8.99346,8.995 8.993997,8.9939972 0 0 1 -8.99346,8.99346 8.993997,8.9939972 0 0 1 -8.99499,-8.99346 8.993997,8.9939972 0 0 1 8.99499,-8.995 z" />
  </g>
</svg>
