<?xml version="1.0" encoding="UTF-8" standalone="no"?>
<svg
   xmlns:dc="http://purl.org/dc/elements/1.1/"
   xmlns:cc="http://creativecommons.org/ns#"
   xmlns:rdf="http://www.w3.org/1999/02/22-rdf-syntax-ns#"
   xmlns:svg="http://www.w3.org/2000/svg"
   xmlns="http://www.w3.org/2000/svg"
   xmlns:sodipodi="http://sodipodi.sourceforge.net/DTD/sodipodi-0.dtd"
   xmlns:inkscape="http://www.inkscape.org/namespaces/inkscape"
   width="210mm"
   height="297mm"
   viewBox="0 0 210 297"
   version="1.1"
   id="svg8"
   sodipodi:docname="buildplate_holes3.svg"
   inkscape:version="1.0.2 (e86c870879, 2021-01-15, custom)">
  <defs
     id="defs2" />
  <sodipodi:namedview
     id="base"
     pagecolor="#ffffff"
     bordercolor="#666666"
     borderopacity="1.0"
     inkscape:pageopacity="0.0"
     inkscape:pageshadow="2"
     inkscape:zoom="1"
     inkscape:cx="127.89432"
     inkscape:cy="261.29329"
     inkscape:document-units="mm"
     inkscape:current-layer="layer1"
     inkscape:document-rotation="0"
     showgrid="false"
     showguides="true"
     inkscape:guide-bbox="true"
     inkscape:window-width="1267"
     inkscape:window-height="979"
     inkscape:window-x="104"
     inkscape:window-y="0"
     inkscape:window-maximized="0">
    <sodipodi:guide
       position="34.200732,287"
       orientation="0,1"
       id="guide12"
       inkscape:label=""
       inkscape:locked="false"
       inkscape:color="rgb(0,0,255)" />
    <sodipodi:guide
       position="10,266.7276"
       orientation="-1,0"
       id="guide14"
       inkscape:label=""
       inkscape:locked="false"
       inkscape:color="rgb(0,0,255)" />
    <sodipodi:guide
       position="20,333.76924"
       orientation="-1,0"
       id="guide16"
       inkscape:label=""
       inkscape:locked="false"
       inkscape:color="rgb(0,0,255)" />
    <sodipodi:guide
       position="9.9999997,277"
       orientation="0,1"
       id="guide20"
       inkscape:label=""
       inkscape:locked="false"
       inkscape:color="rgb(0,0,255)" />
    <sodipodi:guide
       position="-8.0149667,197"
       orientation="0,1"
       id="guide35"
       inkscape:label=""
       inkscape:locked="false"
       inkscape:color="rgb(0,0,255)" />
    <sodipodi:guide
       position="-4.4962009,187"
       orientation="0,1"
       id="guide37"
       inkscape:label=""
       inkscape:locked="false"
       inkscape:color="rgb(0,0,255)" />
    <sodipodi:guide
       position="100,303.64657"
       orientation="-1,0"
       id="guide64"
       inkscape:label=""
       inkscape:locked="false"
       inkscape:color="rgb(0,0,255)" />
    <sodipodi:guide
       position="110,277.00001"
       orientation="-1,0"
       id="guide68"
       inkscape:label=""
       inkscape:locked="false"
       inkscape:color="rgb(0,0,255)" />
    <sodipodi:guide
       position="0,287.00001"
       orientation="-1,0"
       id="guide938"
       inkscape:label=""
       inkscape:locked="false"
       inkscape:color="rgb(0,0,255)" />
    <sodipodi:guide
       position="-15.345833,297"
       orientation="0,1"
       id="guide940"
       inkscape:label=""
       inkscape:locked="false"
       inkscape:color="rgb(0,0,255)" />
  </sodipodi:namedview>
  <metadata
     id="metadata5">
    <rdf:RDF>
      <cc:Work
         rdf:about="">
        <dc:format>image/svg+xml</dc:format>
        <dc:type
           rdf:resource="http://purl.org/dc/dcmitype/StillImage" />
        <dc:title></dc:title>
      </cc:Work>
    </rdf:RDF>
  </metadata>
  <g
     inkscape:label="Layer 1"
     inkscape:groupmode="layer"
     id="layer1">
    <path
       id="rect10"
       style="fill:#ececec;stroke:#808080;stroke-width:0.1;stroke-linejoin:round;stroke-miterlimit:2;stroke-dasharray:none"
       d="M 10,7.7928846e-7 C 4.46,7.7928846e-7 9.3653911e-5,4.4599071 9.3653911e-5,9.9999071 V 90.00019 C 9.3653911e-5,95.540191 4.46,100.0001 10,100.0001 h 80.000282 c 5.540002,0 9.999908,-4.459909 9.999908,-9.99991 V 9.9999071 c 0,-5.54 -4.459906,-9.99990632071154 -9.999908,-9.99990632071154 z M 10,7.0000901 A 3,3 0 0 1 13.000334,9.9999071 3,3 0 0 1 10,13.000241 3,3 0 0 1 7.000183,9.9999071 3,3 0 0 1 10,7.0000901 Z m 80.000282,0 a 3,3 0 0 1 2.99982,2.999817 3,3 0 0 1 -2.99982,3.0003339 3,3 0 0 1 -3.000332,-3.0003339 3,3 0 0 1 3.000332,-2.999817 z M 10,86.999857 A 3,3 0 0 1 13.000334,90.00019 3,3 0 0 1 10,93.000009 3,3 0 0 1 7.000183,90.00019 3,3 0 0 1 10,86.999857 Z m 80.000282,0 a 3,3 0 0 1 2.99982,3.000333 3,3 0 0 1 -2.99982,2.999819 3,3 0 0 1 -3.000332,-2.999819 3,3 0 0 1 3.000332,-3.000333 z" />
  </g>
</svg>
